<svg xmlns="http://www.w3.org/2000/svg" viewBox="0 0 1200 800" role="img" aria-labelledby="title desc"><title id="title">Black physiotherapist making a home visit</title><desc id="desc">An illustrated Black physiotherapist works with a Black older patient at home.</desc><rect width="1200" height="800" fill="#f0ebe2"/><path d="M0 540h1200v260H0z" fill="#a9f4e2"/><path d="M120 250 350 70l230 180v290H120z" fill="#ff725e"/><path d="m75 250 275-220 275 220-40 45L350 95 115 295z" fill="#0b2239"/><circle cx="750" cy="285" r="82" fill="#6b3f2a"/><path d="M670 278c20-105 170-126 184-9-55-30-118-22-184 9Z" fill="#171717"/><path d="M681 370c33-42 119-42 153 0l55 198H624Z" fill="#0b2239"/><path d="M699 412h116l58 130H642Z" fill="#374151"/><path d="M700 566h80v154h-80zM814 566h80v154h-80z" fill="#6b3f2a"/><path d="M675 720h120v28H660zM790 720h120v28H775z" fill="#111827"/><circle cx="420" cy="370" r="78" fill="#8a5135"/><path d="M345 363c20-101 155-119 173-10-53-27-111-22-173 10Z" fill="#171717"/><path d="M360 448c28-40 105-42 138 0l46 145H322Z" fill="#a9f4e2"/><path d="M382 570h68v150h-68zM474 570h68v150h-68z" fill="#8a5135"/><path d="M360 720h105v28H345zM455 720h105v28H440z" fill="#111827"/><path d="M540 430c70 30 105 50 153 79" fill="none" stroke="#ff725e" stroke-width="15" stroke-linecap="round"/></svg>